# xmcd
#
# Track frame offsets: 
#        150
#        13070
#        32167
#        45777
#        57812
#        74667
#        94015
#        113265
#        135090
#        154705
#        167470
#        188945
#        205750
#        247850
#
# Disc length: 3477 seconds
#
# Revision: 4
# Processed by: cddbd v1.5.2PL0 Copyright (c) Steve Scherf et al.
# Submitted via: ExactAudioCopyFreeDBPlugin 1.0
#
DISCID=a20d930e
DTITLE=The Smashing Pumpkins - Mellon Collie and the Infinite Sadness 
DTITLE=(dawn to dusk)
DYEAR=1995
DGENRE=Progressive Rock
TTITLE0=mellon collie and the infinite sadness
TTITLE1=tonight, tonight
TTITLE2=jellybelly
TTITLE3=zero
TTITLE4=here is no why
TTITLE5=bullet with butterfly wings
TTITLE6=to forgive
TTITLE7=an ode to no one
TTITLE8=love
TTITLE9=cupid de locke
TTITLE10=galapogos
TTITLE11=muzzle
TTITLE12=porcelina of the vast oceans
TTITLE13=take me down
EXTD=
EXTT0=
EXTT1=
EXTT2=
EXTT3=
EXTT4=
EXTT5=
EXTT6=
EXTT7=
EXTT8=
EXTT9=
EXTT10=
EXTT11=
EXTT12=
EXTT13=
PLAYORDER=
